<?xml version="1.0" encoding="UTF-8"?>
<!DOCTYPE svg PUBLIC "-//W3C//DTD SVG 1.1//EN"
    "http://www.w3.org/Graphics/SVG/1.1/DTD/svg11.dtd" >
<svg contentScriptType="text/ecmascript" width="894.5491"
     xmlns:xlink="http://www.w3.org/1999/xlink" zoomAndPan="magnify"
     contentStyleType="text/css"
     viewBox="0.000000 -391.647522 894.549072 477.450012" height="477.45"
     preserveAspectRatio="xMidYMid meet" xmlns="http://www.w3.org/2000/svg"
     version="1.1">
    <g id="edges">
        <path fill="none" stroke-width="0.018752476"
              d="M 604.591736,-77.673836 C 574.490723,-51.967178 490.779236,-58.558701 465.072571,-88.659706"
              class="Firewind Sepultura" stroke-opacity="1.0" stroke="#c98694"/>
        <path fill="none" stroke-width="0.68208444"
              d="M 604.591736,-77.673836 C 572.021729,-90.097725 541.802490,-157.588608 554.226379,-190.158646"
              class="Firewind Amorphis" stroke-opacity="1.0" stroke="#9a96e5"/>
        <path fill="none" stroke-width="0.3942234"
              d="M 604.591736,-77.673836 C 546.616516,-54.509056 424.906433,-106.724770 401.741669,-164.700027"
              class="Firewind Belphegor" stroke-opacity="1.0" stroke="#9a96e5"/>
        <path fill="none" stroke-width="0.027096273"
              d="M 604.591736,-77.673836 C 605.111755,-29.402361 533.484558,43.784889 485.213104,44.304909"
              class="Firewind Nightwish" stroke-opacity="1.0" stroke="#c98694"/>
        <path fill="none" stroke-width="0.23986313"
              d="M 299.279327,-20.901421 C 318.886322,-67.611725 418.362244,-108.266693 465.072571,-88.659706"
              class="Arch_Enemy Sepultura" stroke-opacity="1.0" stroke="#f97743"/>
        <path fill="none" stroke-width="0.09384666"
              d="M 299.279327,-20.901421 C 316.417297,-105.742279 469.385529,-207.296600 554.226379,-190.158646"
              class="Arch_Enemy Amorphis" stroke-opacity="1.0" stroke="#c98694"/>
        <path fill="none" stroke-width="0.25655073"
              d="M 299.279327,-20.901421 C 291.012054,-70.153610 352.489471,-156.432770 401.741669,-164.700027"
              class="Arch_Enemy Belphegor" stroke-opacity="1.0" stroke="#c98694"/>
        <path fill="none" stroke-width="2.3883913"
              d="M 299.279327,-20.901421 C 331.677429,-17.749912 375.547302,35.574486 372.395782,67.972580"
              class="Arch_Enemy Epica" stroke-opacity="1.0" stroke="#f97743"/>
        <path fill="none" stroke-width="0.5402399"
              d="M 299.279327,-20.901421 C 349.507355,-45.046913 461.067596,-5.923113 485.213104,44.304909"
              class="Arch_Enemy Nightwish" stroke-opacity="1.0" stroke="#f97743"/>
        <path fill="none" stroke-width="0.018752476"
              d="M 465.072571,-88.659706 C 495.173584,-114.366364 578.885132,-107.774841 604.591736,-77.673836"
              class="Sepultura Firewind" stroke-opacity="1.0" stroke="#c98694"/>
        <path fill="none" stroke-width="0.23986313"
              d="M 465.072571,-88.659706 C 445.465576,-41.949398 345.989655,-1.294430 299.279327,-20.901421"
              class="Sepultura Arch_Enemy" stroke-opacity="1.0" stroke="#f97743"/>
        <path fill="none" stroke-width="0.46514568"
              d="M 465.072571,-88.659706 C 462.603546,-126.790253 516.095825,-187.689621 554.226379,-190.158646"
              class="Sepultura Amorphis" stroke-opacity="1.0" stroke="#c98694"/>
        <path fill="none" stroke-width="0.7279753"
              d="M 465.072571,-88.659706 C 437.198334,-91.201584 399.199768,-136.825775 401.741669,-164.700027"
              class="Sepultura Belphegor" stroke-opacity="1.0" stroke="#c98694"/>
        <path fill="none" stroke-width="1.2661504"
              d="M 465.072571,-88.659706 C 477.863647,-38.797886 422.257599,55.181477 372.395782,67.972580"
              class="Sepultura Epica" stroke-opacity="1.0" stroke="#f97743"/>
        <path fill="none" stroke-width="0.4150829"
              d="M 465.072571,-88.659706 C 495.693604,-66.094887 507.777924,13.683878 485.213104,44.304909"
              class="Sepultura Nightwish" stroke-opacity="1.0" stroke="#f97743"/>
        <path fill="none" stroke-width="0.68208444"
              d="M 554.226379,-190.158646 C 586.796387,-177.734756 617.015625,-110.243874 604.591736,-77.673836"
              class="Amorphis Firewind" stroke-opacity="1.0" stroke="#9a96e5"/>
        <path fill="none" stroke-width="0.09384666"
              d="M 554.226379,-190.158646 C 537.088440,-105.317780 384.120178,-3.763458 299.279327,-20.901421"
              class="Amorphis Arch_Enemy" stroke-opacity="1.0" stroke="#c98694"/>
        <path fill="none" stroke-width="0.46514568"
              d="M 554.226379,-190.158646 C 556.695435,-152.028091 503.203094,-91.128738 465.072571,-88.659706"
              class="Amorphis Sepultura" stroke-opacity="1.0" stroke="#c98694"/>
        <path fill="none" stroke-width="3.4814286"
              d="M 554.226379,-190.158646 C 528.821167,-154.569977 437.330353,-139.294800 401.741669,-164.700027"
              class="Amorphis Belphegor" stroke-opacity="1.0" stroke="#9a96e5"/>
        <path fill="none" stroke-width="0.5193804"
              d="M 554.226379,-190.158646 C 569.486450,-102.166275 460.388153,52.712452 372.395782,67.972580"
              class="Amorphis Epica" stroke-opacity="1.0" stroke="#c98694"/>
        <path fill="none" stroke-width="0.990805"
              d="M 554.226379,-190.158646 C 587.316406,-129.463272 545.908447,11.214852 485.213104,44.304909"
              class="Amorphis Nightwish" stroke-opacity="1.0" stroke="#c98694"/>
        <path fill="none" stroke-width="0.30754635"
              d="M 805.387939,-138.053314 C 744.734558,-98.242065 594.037598,-129.505264 554.226379,-190.158646"
              class="In_Extremo Amorphis" stroke-opacity="1.0" stroke="#61a4a7"/>
        <path fill="none" stroke-width="0.50188947"
              d="M 805.387939,-138.053314 C 788.243408,-184.004456 831.453369,-278.647919 877.404541,-295.792419"
              class="In_Extremo Knorkator" stroke-opacity="1.0" stroke="#28b36a"/>
        <path fill="none" stroke-width="0.3942234"
              d="M 401.741669,-164.700027 C 459.716919,-187.864807 581.426941,-135.649078 604.591736,-77.673836"
              class="Belphegor Firewind" stroke-opacity="1.0" stroke="#9a96e5"/>
        <path fill="none" stroke-width="0.25655073"
              d="M 401.741669,-164.700027 C 410.008942,-115.447838 348.531525,-29.168673 299.279327,-20.901421"
              class="Belphegor Arch_Enemy" stroke-opacity="1.0" stroke="#c98694"/>
        <path fill="none" stroke-width="0.7279753"
              d="M 401.741669,-164.700027 C 429.615906,-162.158142 467.614471,-116.533951 465.072571,-88.659706"
              class="Belphegor Sepultura" stroke-opacity="1.0" stroke="#c98694"/>
        <path fill="none" stroke-width="3.4814286"
              d="M 401.741669,-164.700027 C 427.146881,-200.288696 518.637695,-215.563873 554.226379,-190.158646"
              class="Belphegor Amorphis" stroke-opacity="1.0" stroke="#9a96e5"/>
        <path fill="none" stroke-width="0.55275553"
              d="M 401.741669,-164.700027 C 442.407013,-112.296326 424.799469,27.307234 372.395782,67.972580"
              class="Belphegor Epica" stroke-opacity="1.0" stroke="#c98694"/>
        <path fill="none" stroke-width="0.65705305"
              d="M 401.741669,-164.700027 C 460.236938,-139.593323 510.319824,-14.190369 485.213104,44.304909"
              class="Belphegor Nightwish" stroke-opacity="1.0" stroke="#c98694"/>
        <path fill="none" stroke-width="1.7703674"
              d="M 629.895386,-353.734009 C 680.046692,-293.461243 664.864502,-127.825150 604.591736,-77.673836"
              class="Deserted_Fear Firewind" stroke-opacity="1.0"
              stroke="#9a96e5"/>
        <path fill="none" stroke-width="0.3719655"
              d="M 629.895386,-353.734009 C 649.945679,-267.754578 551.052002,-108.709991 465.072571,-88.659706"
              class="Deserted_Fear Sepultura" stroke-opacity="1.0"
              stroke="#c98694"/>
        <path fill="none" stroke-width="1.7703674"
              d="M 629.895386,-353.734009 C 647.476685,-305.885132 602.075256,-207.739914 554.226379,-190.158646"
              class="Deserted_Fear Amorphis" stroke-opacity="1.0"
              stroke="#9a96e5"/>
        <path fill="none" stroke-width="1.7703674"
              d="M 629.895386,-353.734009 C 622.071472,-270.296478 485.179199,-156.876083 401.741669,-164.700027"
              class="Deserted_Fear Belphegor" stroke-opacity="1.0"
              stroke="#9a96e5"/>
        <path fill="none" stroke-width="0.488499"
              d="M 629.895386,-353.734009 C 690.985535,-391.647522 839.491028,-356.882568 877.404541,-295.792419"
              class="Deserted_Fear Knorkator" stroke-opacity="1.0"
              stroke="#61a4a7"/>
        <path fill="none" stroke-width="2.3883913"
              d="M 372.395782,67.972580 C 339.997681,64.821068 296.127808,11.496673 299.279327,-20.901421"
              class="Epica Arch_Enemy" stroke-opacity="1.0" stroke="#f97743"/>
        <path fill="none" stroke-width="1.2661504"
              d="M 372.395782,67.972580 C 359.604706,18.110760 415.210754,-75.868607 465.072571,-88.659706"
              class="Epica Sepultura" stroke-opacity="1.0" stroke="#f97743"/>
        <path fill="none" stroke-width="0.5193804"
              d="M 372.395782,67.972580 C 357.135651,-20.019787 466.233978,-174.898514 554.226379,-190.158646"
              class="Epica Amorphis" stroke-opacity="1.0" stroke="#c98694"/>
        <path fill="none" stroke-width="0.55275553"
              d="M 372.395782,67.972580 C 331.730438,15.568880 349.337982,-124.034683 401.741669,-164.700027"
              class="Epica Belphegor" stroke-opacity="1.0" stroke="#c98694"/>
        <path fill="none" stroke-width="5.0"
              d="M 372.395782,67.972580 C 390.225739,40.675579 457.916107,26.474979 485.213104,44.304909"
              class="Epica Nightwish" stroke-opacity="1.0" stroke="#f97743"/>
        <path fill="none" stroke-width="0.03830945"
              d="M 877.404541,-295.792419 C 833.895691,-210.030014 639.988770,-146.649765 554.226379,-190.158646"
              class="Knorkator Amorphis" stroke-opacity="1.0" stroke="#61a4a7"/>
        <path fill="none" stroke-width="0.0"
              d="M 877.404541,-295.792419 C 894.549072,-249.841278 851.339111,-155.197815 805.387939,-138.053314"
              class="Knorkator In_Extremo" stroke-opacity="1.0" stroke="#28b36a"/>
        <path fill="none" stroke-width="0.11522764"
              d="M 256.043091,-135.396042 C 337.297241,-193.561340 546.426453,-158.928009 604.591736,-77.673836"
              class="Watain Firewind" stroke-opacity="1.0" stroke="#9a96e5"/>
        <path fill="none" stroke-width="0.27819246"
              d="M 256.043091,-135.396042 C 287.589264,-121.144363 313.531006,-52.447594 299.279327,-20.901421"
              class="Watain Arch_Enemy" stroke-opacity="1.0" stroke="#c98694"/>
        <path fill="none" stroke-width="0.11522764"
              d="M 256.043091,-135.396042 C 307.196259,-167.854675 432.613922,-139.812866 465.072571,-88.659706"
              class="Watain Sepultura" stroke-opacity="1.0" stroke="#c98694"/>
        <path fill="none" stroke-width="1.4189461"
              d="M 256.043091,-135.396042 C 304.727234,-205.985214 483.637207,-238.842789 554.226379,-190.158646"
              class="Watain Amorphis" stroke-opacity="1.0" stroke="#9a96e5"/>
        <path fill="none" stroke-width="4.5152774"
              d="M 256.043091,-135.396042 C 279.321991,-170.396545 366.741150,-187.978943 401.741669,-164.700027"
              class="Watain Belphegor" stroke-opacity="1.0" stroke="#9a96e5"/>
        <path fill="none" stroke-width="0.27819246"
              d="M 256.043091,-135.396042 C 319.987366,-117.992859 389.798981,4.028316 372.395782,67.972580"
              class="Watain Epica" stroke-opacity="1.0" stroke="#c98694"/>
        <path fill="none" stroke-width="0.76708686"
              d="M 256.043091,-135.396042 C 337.817291,-145.289856 475.319275,-37.469288 485.213104,44.304909"
              class="Watain Nightwish" stroke-opacity="1.0" stroke="#c98694"/>
        <path fill="none" stroke-width="0.027096273"
              d="M 485.213104,44.304909 C 484.693085,-3.966566 556.320251,-77.153816 604.591736,-77.673836"
              class="Nightwish Firewind" stroke-opacity="1.0" stroke="#c98694"/>
        <path fill="none" stroke-width="0.5402399"
              d="M 485.213104,44.304909 C 434.985077,68.450401 323.424835,29.326601 299.279327,-20.901421"
              class="Nightwish Arch_Enemy" stroke-opacity="1.0" stroke="#f97743"/>
        <path fill="none" stroke-width="0.4150829"
              d="M 485.213104,44.304909 C 454.592072,21.740091 442.507751,-58.038673 465.072571,-88.659706"
              class="Nightwish Sepultura" stroke-opacity="1.0" stroke="#f97743"/>
        <path fill="none" stroke-width="0.990805"
              d="M 485.213104,44.304909 C 452.123047,-16.390457 493.531006,-157.068588 554.226379,-190.158646"
              class="Nightwish Amorphis" stroke-opacity="1.0" stroke="#c98694"/>
        <path fill="none" stroke-width="0.65705305"
              d="M 485.213104,44.304909 C 426.717834,19.198204 376.634949,-106.204742 401.741669,-164.700027"
              class="Nightwish Belphegor" stroke-opacity="1.0" stroke="#c98694"/>
        <path fill="none" stroke-width="5.0"
              d="M 485.213104,44.304909 C 467.383148,71.601913 399.692780,85.802505 372.395782,67.972580"
              class="Nightwish Epica" stroke-opacity="1.0" stroke="#f97743"/>
    </g>
    <g id="nodes">
        <circle fill-opacity="1.0" fill="#9a96e5" r="10.0" cx="604.59174"
                class="Firewind" cy="-77.673836" stroke="#000000"
                stroke-opacity="1.0" stroke-width="1.0"/>
        <circle fill-opacity="1.0" fill="#f97743" r="10.0" cx="299.27933"
                class="Arch_Enemy" cy="-20.90142" stroke="#000000"
                stroke-opacity="1.0" stroke-width="1.0"/>
        <circle fill-opacity="1.0" fill="#f97743" r="10.0" cx="465.07257"
                class="Sepultura" cy="-88.659706" stroke="#000000"
                stroke-opacity="1.0" stroke-width="1.0"/>
        <circle fill-opacity="1.0" fill="#9a96e5" r="10.0" cx="554.2264"
                class="Amorphis" cy="-190.15865" stroke="#000000"
                stroke-opacity="1.0" stroke-width="1.0"/>
        <circle fill-opacity="1.0" fill="#28b36a" r="10.0" cx="805.38794"
                class="In_Extremo" cy="-138.05331" stroke="#000000"
                stroke-opacity="1.0" stroke-width="1.0"/>
        <circle fill-opacity="1.0" fill="#9a96e5" r="10.0" cx="401.74167"
                class="Belphegor" cy="-164.70003" stroke="#000000"
                stroke-opacity="1.0" stroke-width="1.0"/>
        <circle fill-opacity="1.0" fill="#9a96e5" r="10.0" cx="629.8954"
                class="Deserted_Fear" cy="-353.734" stroke="#000000"
                stroke-opacity="1.0" stroke-width="1.0"/>
        <circle fill-opacity="1.0" fill="#f97743" r="10.0" cx="372.39578"
                class="Epica" cy="67.97258" stroke="#000000"
                stroke-opacity="1.0" stroke-width="1.0"/>
        <circle fill-opacity="1.0" fill="#28b36a" r="10.0" cx="877.40454"
                class="Knorkator" cy="-295.79242" stroke="#000000"
                stroke-opacity="1.0" stroke-width="1.0"/>
        <circle fill-opacity="1.0" fill="#9a96e5" r="10.0" cx="256.0431"
                class="Watain" cy="-135.39604" stroke="#000000"
                stroke-opacity="1.0" stroke-width="1.0"/>
        <circle fill-opacity="1.0" fill="#f97743" r="10.0" cx="485.2131"
                class="Nightwish" cy="44.30491" stroke="#000000"
                stroke-opacity="1.0" stroke-width="1.0"/>
    </g>
    <g id="node-labels">
        <text font-size="8" x="604.59174" y="-76.125656" fill="#000000"
              style="text-anchor: middle; dominant-baseline: central;"
              font-family="Dialog" class="Firewind">
            Firewind
        </text>
        <text font-size="8" x="299.27933" y="-18.909883" fill="#000000"
              style="text-anchor: middle; dominant-baseline: central;"
              font-family="Dialog" class="Arch_Enemy">
            Arch_Enemy
        </text>
        <text font-size="8" x="465.07257" y="-86.72416" fill="#000000"
              style="text-anchor: middle; dominant-baseline: central;"
              font-family="Dialog" class="Sepultura">
            Sepultura
        </text>
        <text font-size="8" x="554.2264" y="-188.2231" fill="#000000"
              style="text-anchor: middle; dominant-baseline: central;"
              font-family="Dialog" class="Amorphis">
            Amorphis
        </text>
        <text font-size="8" x="805.38794" y="-136.12299" fill="#000000"
              style="text-anchor: middle; dominant-baseline: central;"
              font-family="Dialog" class="In_Extremo">
            In_Extremo
        </text>
        <text font-size="8" x="401.74167" y="-162.76448" fill="#000000"
              style="text-anchor: middle; dominant-baseline: central;"
              font-family="Dialog" class="Belphegor">
            Belphegor
        </text>
        <text font-size="8" x="629.8954" y="-351.74246" fill="#000000"
              style="text-anchor: middle; dominant-baseline: central;"
              font-family="Dialog" class="Deserted_Fear">
            Deserted_Fear
        </text>
        <text font-size="8" x="372.39578" y="69.90813" fill="#000000"
              style="text-anchor: middle; dominant-baseline: central;"
              font-family="Dialog" class="Epica">
            Epica
        </text>
        <text font-size="8" x="877.40454" y="-294.24423" fill="#000000"
              style="text-anchor: middle; dominant-baseline: central;"
              font-family="Dialog" class="Knorkator">
            Knorkator
        </text>
        <text font-size="8" x="256.0431" y="-133.84787" fill="#000000"
              style="text-anchor: middle; dominant-baseline: central;"
              font-family="Dialog" class="Watain">
            Watain
        </text>
        <text font-size="8" x="485.2131" y="46.240456" fill="#000000"
              style="text-anchor: middle; dominant-baseline: central;"
              font-family="Dialog" class="Nightwish">
            Nightwish
        </text>
    </g>
</svg>